<?xml version="1.0" encoding="UTF-8" standalone="no"?>
<!-- Svg Vector Icons : http://www.onlinewebfonts.com/icon -->

<svg
   xmlns:dc="http://purl.org/dc/elements/1.1/"
   xmlns:cc="http://creativecommons.org/ns#"
   xmlns:rdf="http://www.w3.org/1999/02/22-rdf-syntax-ns#"
   xmlns:svg="http://www.w3.org/2000/svg"
   xmlns="http://www.w3.org/2000/svg"
   xmlns:sodipodi="http://sodipodi.sourceforge.net/DTD/sodipodi-0.dtd"
   xmlns:inkscape="http://www.inkscape.org/namespaces/inkscape"
   version="1.1"
   x="0px"
   y="0px"
   viewBox="0 0 2385.4344 353.42318"
   enable-background="new 0 0 1000 1000"
   xml:space="preserve"
   id="svg3978"
   sodipodi:docname="ecoshare.svg"
   inkscape:version="0.92.4 5da689c313, 2019-01-14"
   width="2385.4343"
   height="353.42319"><defs
   id="defs3982" /><sodipodi:namedview
   pagecolor="#ffffff"
   bordercolor="#666666"
   borderopacity="1"
   objecttolerance="10"
   gridtolerance="10"
   guidetolerance="10"
   inkscape:pageopacity="0"
   inkscape:pageshadow="2"
   inkscape:window-width="1600"
   inkscape:window-height="877"
   id="namedview3980"
   showgrid="false"
   inkscape:zoom="0.236"
   inkscape:cx="1203.3161"
   inkscape:cy="217.64648"
   inkscape:window-x="0"
   inkscape:window-y="1020"
   inkscape:window-maximized="0"
   inkscape:current-layer="g1783"
   fit-margin-top="0"
   fit-margin-left="0"
   fit-margin-right="0"
   fit-margin-bottom="0" />
<metadata
   id="metadata3960"> Svg Vector Icons : http://www.onlinewebfonts.com/icon <rdf:RDF><cc:Work
     rdf:about=""><dc:format>image/svg+xml</dc:format><dc:type
       rdf:resource="http://purl.org/dc/dcmitype/StillImage" /><dc:title></dc:title></cc:Work></rdf:RDF></metadata>



<g
   style="fill:#ffffff;fill-opacity:1"
   id="g1774"
   transform="matrix(0.13811433,0,0,0.13811433,723.07634,-680.48377)"><g
     style="fill:#000000"
     id="g1783"><path
       style="fill:#000000;stroke-width:0.26054963"
       inkscape:connector-curvature="0"
       id="path1747"
       d="m -195.97139,4928.1181 c -55.00203,4.273 -146.81972,18.6814 -202.34284,32.0216 -73.68343,18.1603 -214.09362,67.2739 -214.09362,74.7517 0,1.5893 17.09205,18.1603 37.36281,37.9099 20.81792,19.2286 45.90885,46.456 56.07028,60.3173 24.02268,32.5687 58.72789,101.9791 67.79501,135.0689 4.79412,19.2285 8.54603,24.5698 14.95555,22.4333 28.81679,-11.2036 120.13943,-35.7735 159.0916,-42.7041 66.20566,-12.2719 186.345093,-16.0238 249.867091,-8.546 198.616969,24.5698 361.460479,101.432 504.528279,239.1846 l 56.59138,55.002 26.15918,-24.5699 c 56.07028,-51.7972 139.34193,-92.3648 225.84441,-109.9779 l 34.15805,-6.9307 -33.11585,-41.1147 C 609.10088,5130.461 341.62064,4979.3682 53.843587,4938.2535 -2.6956796,4930.2546 -143.65303,4924.3662 -195.97139,4928.1181 Z" /><path
       style="fill:#000000;stroke-width:0.26054963"
       inkscape:connector-curvature="0"
       id="path1749"
       d="m -917.79806,5037.0279 c -285.64064,45.3877 -416.43654,380.663 -234.91164,602.2344 58.7279,71.5469 172.97899,123.8652 270.6851,123.8652 103.56848,0 215.68298,-53.9337 286.7088,-137.7525 113.72991,-134.0007 113.18276,-343.8213 -1.6154,-472.5068 -79.5458,-89.134 -204.47935,-134.0006 -320.86686,-115.8403 z" /><path
       style="fill:#000000;stroke-width:0.26054963"
       inkscape:connector-curvature="0"
       id="path1751"
       d="m 788.56745,5472.1718 c -163.36461,35.2263 -286.16164,180.4567 -294.18657,347.026 -13.8873,287.7771 291.50291,468.7548 541.91712,321.9351 38.9782,-22.4333 111.0462,-94.5013 133.4795,-133.4795 53.9338,-91.8438 65.1374,-213.0254 28.8429,-312.3469 -20.8179,-56.0703 -45.9089,-93.4331 -91.8438,-137.2055 -82.2294,-76.8621 -205.57354,-110.499 -318.20915,-85.9292 z" /><path
       style="fill:#000000;stroke-width:0.26054963"
       inkscape:connector-curvature="0"
       id="path1753"
       d="m -1257.3464,5719.3552 c -34.7052,93.4331 -58.2068,190.071 -70.9998,292.0501 -7.5038,60.8644 -6.9567,209.8206 0.5211,272.2743 36.8417,307.0056 190.071,584.6213 424.98259,771.4875 21.88616,17.6131 42.18298,32.0215 43.77233,32.0215 2.13651,0 6.93062,-17.6131 10.13538,-39.4993 12.27189,-76.3411 50.72901,-154.2975 106.77324,-216.7512 l 24.56983,-27.2275 -42.18299,-41.1147 c -221.02424,-214.0936 -311.79978,-512.0061 -247.73058,-809.9185 6.4095,-27.7746 17.09206,-67.2739 24.02268,-88.0918 9.06713,-27.2275 11.20363,-38.4311 6.40952,-40.0465 -104.6368,-32.0216 -148.4352,-56.0703 -211.4361,-118.524 -24.5698,-24.5438 -45.3877,-44.3195 -45.9088,-44.3195 -1.0422,0 -11.2037,26.1592 -22.9284,57.6596 z" /><path
       style="fill:#000000;stroke-width:0.26054963"
       inkscape:connector-curvature="0"
       id="path1755"
       d="m 998.38804,6238.839 c -70.47865,27.7746 -180.45664,33.1159 -260.5496,12.8191 -13.88729,-3.2048 -14.40839,-2.6576 -26.15918,46.456 -63.0009,264.2755 -254.1401,498.1187 -500.80242,613.9852 -48.04535,22.9544 -156.433988,59.7961 -191.139198,65.6585 l -22.4072666,3.2047 7.477774,27.7746 c 19.2285616,72.6152 14.4083936,166.0483 -13.3401406,244.5258 -11.2036338,30.9794 -13.3401398,42.183 -7.9988728,42.183 3.72586,0 32.021547,-4.8202 62.479798,-10.6825 241.321056,-46.456 446.868646,-153.2293 622.531196,-323.0034 104.11563,-100.3637 178.86732,-201.8217 242.38932,-326.7553 63.00093,-124.9335 97.70605,-233.8432 123.86525,-392.9609 2.6315,-17.0921 -0.5733,-17.0921 -36.34666,-3.2048 z" /><path
       style="fill:#000000;stroke-width:0.26054963"
       inkscape:connector-curvature="0"
       id="path1757"
       d="m -486.92715,6764.7324 c -81.16121,17.092 -171.38954,73.6834 -219.43489,137.2054 -53.93378,72.068 -77.95645,142.5467 -77.4093,229.5703 0,99.8426 33.63696,181.5249 101.43197,249.346 148.95622,148.409 386.00426,138.2737 531.23462,-22.4333 37.90998,-41.6359 75.272792,-114.7982 86.50248,-169.7742 19.228562,-92.3648 -1.068253,-198.6169 -52.86552,-276.0262 -79.0247,-118.5241 -226.91267,-177.2519 -369.45936,-147.888 z" /><path
       style="fill:#000000;fill-opacity:1"
       inkscape:connector-curvature="0"
       d="m -192.30562,6538.8969 c -30.5,-8.9 -62,-15.3 -91.2,-27.3 -137.4,-56 -227.8,-199.1 -218.8,-346.7 3.9,-63.6 30.3,-119.7 68,-170.3 52.3,-70.2 108.6,-137.6 157.6,-210 45,-66.4 82.7,-137.8 123.6,-207 3.2,-5.3 6,-10.9 10.3,-18.7 3.9,7.4 7.1,12.7 9.5,18.3 55.300004,133.6 136.1000044,251.1 228.300003,361.6 26.899997,32.2 51.199997,67.1 73.299997,102.9 61.2,99.1 54.6,201.5 4.1,301.4 -54.1,107.2 -143.499996,170.4 -261.699996,192.4 -3.7,0.7 -7.1,2.3 -10.700004,3.5 -31,-0.1 -61.6,-0.1 -92.3,-0.1 z"
       id="path1759" /></g></g><g
   transform="translate(-581.15444,-678.2596)"
   id="g1851"
   style="font-style:normal;font-weight:normal;font-size:88.18496704px;line-height:1.25;font-family:sans-serif;letter-spacing:0px;word-spacing:0px;fill:#000000;fill-opacity:1;stroke:none;stroke-width:2.20462394"
   aria-label="ECOSHARE"><path
     inkscape:connector-curvature="0"
     id="path1835"
     style="font-style:normal;font-variant:normal;font-weight:normal;font-stretch:normal;font-size:423.28781128px;font-family:Cocogoose;-inkscape-font-specification:Cocogoose;stroke-width:2.20462394"
     d="m 581.15444,697.79183 q 0,-4.44452 2.32808,-6.98425 2.53973,-2.75137 6.98425,-2.75137 h 210.1624 q 4.65617,0 7.19589,2.75137 2.53973,2.75137 2.53973,7.40754 v 52.48769 q 0,3.59794 -2.53973,6.98425 -2.53972,3.17466 -7.40753,3.17466 H 663.27228 v 52.27604 h 105.82195 q 4.02123,0 6.56096,1.9048 2.75137,1.90479 2.75137,6.34931 v 45.71509 q 0,2.96301 -2.32808,5.71438 -2.32808,2.75137 -6.77261,2.75137 H 663.27228 v 53.9692 h 142.2247 q 9.52398,0 9.52398,9.73562 v 53.33426 q 0,2.11644 -1.69315,3.80959 -0.84658,5.92602 -8.6774,5.92602 H 590.46677 q -4.23287,0 -6.7726,-2.1164 -2.53973,-2.32811 -2.53973,-6.98428 z" /><path
     inkscape:connector-curvature="0"
     id="path1837"
     style="font-style:normal;font-variant:normal;font-weight:normal;font-stretch:normal;font-size:423.28781128px;font-family:Cocogoose;-inkscape-font-specification:Cocogoose;stroke-width:2.20462394"
     d="m 1106.666,710.91375 q 3.5979,2.11644 5.291,5.50275 1.6932,3.3863 -0.6349,8.04246 l -35.7678,50.79454 q -2.3281,3.59795 -5.0795,4.23288 -2.5397,0.42329 -6.3493,-1.9048 -10.3705,-7.83082 -22.8575,-12.0637 -12.487,-4.23288 -26.4555,-4.23288 -17.3548,0 -31.95823,6.56096 -14.60343,6.56097 -25.18563,17.98974 -10.58219,11.42877 -16.50822,26.66713 -5.92603,15.23836 -5.92603,32.59316 0,17.3548 5.92603,32.59316 5.92603,15.02672 16.50822,26.45549 10.5822,11.21713 25.18563,17.77809 14.60343,6.56096 31.95823,6.56096 13.9685,0 26.6671,-4.23288 12.6987,-4.44452 23.0692,-12.27535 3.8096,-2.32808 6.3493,-1.90479 2.5398,0.42329 5.0795,3.80959 l 36.1911,52.0644 q 2.3281,4.65617 0.6349,7.83082 -1.6931,3.17466 -5.2911,5.2911 -19.8945,13.33357 -42.9637,20.74111 -22.8575,7.19591 -48.2548,7.19591 -22.43425,0 -43.17535,-5.7144 -20.52946,-5.71439 -38.51919,-16.29659 -17.98974,-10.58219 -32.80481,-25.18562 -14.60343,-14.81508 -25.18562,-32.59316 -10.5822,-17.98974 -16.29659,-38.5192 -5.71438,-20.7411 -5.71438,-43.17535 0,-22.43426 5.71438,-42.96371 5.71439,-20.74111 16.29659,-38.73084 10.58219,-18.20138 25.18562,-33.01645 14.81507,-14.81507 32.80481,-25.18562 17.98973,-10.5822 38.51919,-16.29658 20.7411,-5.92603 43.17535,-5.92603 25.3973,0 47.8315,7.19589 22.6459,6.98425 42.5405,20.31781 z" /><path
     inkscape:connector-curvature="0"
     id="path1841"
     style="font-style:normal;font-variant:normal;font-weight:normal;font-stretch:normal;font-size:423.28781128px;font-family:Cocogoose;-inkscape-font-specification:Cocogoose;stroke-width:2.20462394"
     d="m 1533.7619,900.96998 q 3.5979,2.96302 9.1007,8.04247 5.7144,4.86781 12.9102,9.73562 10.7939,7.19589 21.3761,11.21713 10.5822,4.02123 22.2226,4.02123 10.7938,0 17.9897,-2.32808 7.4076,-2.53973 11.6404,-6.56096 4.2329,-4.02124 5.9261,-9.31234 1.9048,-5.29109 1.9048,-11.21712 0,-6.56096 -5.0795,-11.64042 -4.8678,-5.29109 -12.0637,-9.31233 -7.1959,-4.02123 -15.0267,-6.7726 -7.8308,-2.96302 -13.5452,-4.86781 -25.3973,-8.88905 -44.4452,-19.04796 -19.048,-10.37055 -31.7466,-22.85754 -12.6987,-12.69863 -19.048,-27.72535 -6.3493,-15.23836 -6.3493,-33.86302 0,-19.68289 7.8308,-35.76782 8.0425,-16.08494 22.6459,-27.51371 14.8151,-11.42877 35.5562,-17.56645 20.7411,-6.34931 46.35,-6.34931 19.2596,0 36.8261,4.44452 17.778,4.23288 34.9212,13.75685 7.1959,4.23288 13.5452,8.88905 6.561,4.44452 11.4288,8.6774 4.8678,4.23288 7.6192,8.04247 2.963,3.80959 2.963,6.56096 0,2.75137 -1.4815,5.07945 -1.2699,2.32808 -4.0213,5.2911 l -32.3815,34.49795 q -3.5979,3.59795 -7.1959,3.59795 -2.963,0 -5.5027,-1.69315 -2.3281,-1.69315 -5.2911,-4.23288 l -1.9048,-1.69315 q -4.2329,-3.59795 -9.524,-7.40754 -5.0794,-3.80959 -11.0055,-6.7726 -5.926,-3.17466 -12.487,-5.07945 -6.5609,-2.11644 -13.3335,-2.11644 -6.9843,0 -13.1219,1.26986 -6.1377,1.05822 -10.7939,3.59795 -4.6561,2.53972 -7.4075,6.7726 -2.7514,4.02124 -2.7514,9.94726 0,5.92603 2.963,10.37056 2.963,4.23287 8.8891,8.04246 5.926,3.59795 14.6034,6.98425 8.889,3.17466 20.5295,6.98425 22.4342,7.40754 41.2705,15.66165 19.048,8.04247 32.8048,19.2596 13.7569,11.00548 21.3761,26.45548 7.8308,15.45001 7.8308,37.46098 0,23.28083 -9.524,42.32878 -9.524,18.8363 -26.2438,32.16987 -16.5083,13.33357 -38.9425,20.7411 -22.4343,7.19585 -48.2548,7.19585 -24.3391,0 -47.8316,-8.67735 -23.4924,-8.6774 -43.8102,-23.28083 -8.4658,-6.13768 -14.3918,-12.06371 -5.7144,-5.92603 -9.1007,-9.52397 l -0.6349,-0.63493 q -0.2117,-0.42329 -0.4233,-0.42329 -0.2117,-0.21165 -0.4233,-0.42329 -0.2117,-0.42329 -0.4233,-0.42329 -0.2117,-0.21164 -0.4233,-0.42328 -4.8678,-5.2911 -4.8678,-8.46576 0,-3.59795 4.8678,-8.04247 l 36.6144,-34.92124 q 4.4445,-3.17466 7.1959,-3.17466 1.9048,0 4.0212,1.26986 2.1165,1.26986 5.0795,3.80959 z" /><path
     inkscape:connector-curvature="0"
     id="path1843"
     style="font-style:normal;font-variant:normal;font-weight:normal;font-stretch:normal;font-size:423.28781128px;font-family:Cocogoose;-inkscape-font-specification:Cocogoose;stroke-width:2.20462394"
     d="m 1772.7071,697.36854 q 0.2116,-3.59794 2.5397,-6.34931 2.5397,-2.96302 6.561,-2.96302 h 62.8582 q 3.1747,0 6.561,2.75137 3.3863,2.53973 3.3863,6.56096 v 100.31922 h 105.187 V 697.36854 q 0,-3.80959 2.5397,-6.56096 2.7514,-2.75137 6.9843,-2.75137 h 62.0116 q 4.2329,0 7.4076,2.11644 3.1746,2.11644 3.1746,6.77261 v 296.08982 q 0,4.65617 -2.7514,6.98422 -2.7513,2.3281 -7.1958,2.3281 h -62.6466 q -4.2329,0 -6.9843,-2.3281 -2.5397,-2.32805 -2.5397,-6.98422 V 872.82134 h -105.187 v 120.21374 q 0,4.44452 -2.9631,6.98422 -2.7513,2.3281 -7.6191,2.3281 h -62.2233 q -8.8891,0 -9.1007,-8.2541 z" /><path
     inkscape:connector-curvature="0"
     id="path1845"
     style="font-style:normal;font-variant:normal;font-weight:normal;font-stretch:normal;font-size:423.28781128px;font-family:Cocogoose;-inkscape-font-specification:Cocogoose;stroke-width:2.20462394"
     d="m 2200.8621,696.31032 q 0.2117,-1.26986 1.2699,-2.75137 1.2699,-1.4815 2.963,-2.75137 1.6932,-1.26986 3.598,-1.90479 1.9048,-0.84658 3.5979,-0.84658 h 54.1808 q 3.598,0 6.1377,2.32809 2.5397,2.11643 3.8096,3.80959 l 5.2911,12.0637 111.1131,286.56585 q 1.6931,4.23287 -0.635,6.98425 -2.3281,2.53971 -8.0424,2.53971 h -60.7418 q -4.8679,0 -7.6192,-1.6931 -2.5398,-1.90483 -4.0213,-6.13771 -4.2328,-10.79384 -8.2541,-21.37604 -4.0212,-10.79384 -8.0424,-21.58768 h -112.383 q -4.0212,10.79384 -8.2541,21.58768 -4.0212,10.5822 -8.0424,21.37604 -2.7514,7.83081 -10.7939,7.83081 h -62.4349 q -4.0213,0 -6.7726,-2.1164 -2.5398,-2.11647 -0.8466,-6.34934 z m 38.5192,90.5836 q -4.0212,10.79384 -8.2541,23.28083 -4.0212,12.48699 -8.0425,25.18562 -4.0212,12.69863 -8.2541,25.18563 -4.0212,12.27534 -8.0424,23.06918 h 64.9746 z" /><path
     inkscape:connector-curvature="0"
     id="path1847"
     style="font-style:normal;font-variant:normal;font-weight:normal;font-stretch:normal;font-size:423.28781128px;font-family:Cocogoose;-inkscape-font-specification:Cocogoose;stroke-width:2.20462394"
     d="m 2435.3633,697.79183 q 0,-4.44452 2.328,-6.98425 2.3281,-2.75137 6.9843,-2.75137 h 136.7219 q 21.7994,0 40.8473,8.25411 19.048,8.04247 33.2281,22.01097 14.1802,13.9685 22.2226,32.80481 8.2541,18.62466 8.2541,39.78905 0,14.39179 -4.0212,27.51371 -3.8096,12.91028 -10.7938,24.33905 -6.9843,11.21712 -16.7199,20.52946 -9.524,9.10068 -20.9528,15.66165 l 54.3925,102.43565 q 1.4815,2.96301 3.8096,6.98424 2.3281,4.02124 2.3281,6.98425 0,3.38631 -2.3281,5.29114 -2.1164,1.6931 -5.926,1.6931 h -72.5939 q -3.5979,0 -6.5609,-2.1164 -2.7514,-2.11647 -3.598,-5.71441 l -51.4294,-96.72127 h -34.2864 v 95.4514 q 0,9.10068 -9.7356,9.10068 h -62.8582 q -4.2329,0 -6.7726,-2.1164 -2.5397,-2.32811 -2.5397,-6.98428 z m 165.7171,93.9699 q 0,-6.34932 -2.3281,-12.69864 -2.328,-6.34932 -6.5609,-11.64041 -4.2329,-5.2911 -10.1589,-8.88905 -5.9261,-3.59794 -13.1219,-4.65616 -5.9261,-0.42329 -11.2172,-0.63493 -5.0794,-0.42329 -11.2171,-0.42329 h -29.2069 v 77.67331 h 38.9425 q 3.8096,0 6.7726,-0.21164 2.963,-0.21165 6.561,-0.63493 7.4075,-0.84658 13.3336,-4.23288 5.926,-3.59795 9.9472,-8.6774 4.0213,-5.2911 6.1377,-11.64042 2.1164,-6.56096 2.1164,-13.33356 z" /><path
     inkscape:connector-curvature="0"
     id="path1849"
     style="font-style:normal;font-variant:normal;font-weight:normal;font-stretch:normal;font-size:423.28781128px;font-family:Cocogoose;-inkscape-font-specification:Cocogoose;stroke-width:2.20462394"
     d="m 2732.7223,697.79183 q 0,-4.44452 2.3281,-6.98425 2.5397,-2.75137 6.9842,-2.75137 h 210.1624 q 4.6562,0 7.1959,2.75137 2.5398,2.75137 2.5398,7.40754 v 52.48769 q 0,3.59794 -2.5398,6.98425 -2.5397,3.17466 -7.4075,3.17466 h -137.1453 v 52.27604 h 105.822 q 4.0212,0 6.561,1.9048 2.7513,1.90479 2.7513,6.34931 v 45.71509 q 0,2.96301 -2.3281,5.71438 -2.328,2.75137 -6.7726,2.75137 h -106.0336 v 53.9692 h 142.2248 q 9.5239,0 9.5239,9.73562 v 53.33426 q 0,2.11644 -1.6931,3.80959 -0.8466,5.92602 -8.6774,5.92602 h -214.1837 q -4.2328,0 -6.7726,-2.1164 -2.5397,-2.32811 -2.5397,-6.98428 z" /></g></svg>